<svg xmlns="http://www.w3.org/2000/svg"
    width="147" 
    height="107" 
    viewBox="0 0 147.4 107.7" >

    <path
        d="M21,89.6c-0.9,0 -2.2,-0.1 -3.1,-0.4c-0.4,-0.1 -0.6,-0.5 -0.4,-0.9s0.5,-0.6 0.9,-0.5c0.7,0.2 1.9,0.4 2.6,0.4c0.9,0 2.4,-0.3 2.4,-2.1c0,-1.1 -0.4,-1.4 -1.4,-1.8l-2.5,-1.1c-1.2,-0.5 -2.3,-1.1 -2.3,-3.1c0,-2.1 1.5,-3.5 3.9,-3.5c0.9,0 2.2,0.1 3.1,0.4c0.4,0.1 0.6,0.5 0.4,0.9c-0.1,0.4 -0.5,0.6 -0.9,0.5c-0.7,-0.2 -1.9,-0.4 -2.6,-0.4c-0.9,0 -2.4,0.3 -2.4,2.1c0,1.1 0.4,1.4 1.4,1.8l2.5,1.1c1.2,0.5 2.3,1.1 2.3,3.1C24.8,88.2 23.3,89.6 21,89.6z"
        fill="#FFFFFF"/>
    <path
        d="M32.6,89.3c-0.1,0 -0.7,0.3 -1.4,0.3c-2.1,0 -3.2,-1.2 -3.2,-3.6v-4.4h-1.2c-0.4,0 -0.7,-0.3 -0.7,-0.7c0,-0.4 0.3,-0.7 0.7,-0.7H28v-2.3c0,-0.4 0.3,-0.7 0.7,-0.7c0.4,0 0.7,0.3 0.7,0.7v2.3h2.2c0.4,0 0.7,0.3 0.7,0.7c0,0.4 -0.3,0.7 -0.7,0.7h-2.2V86c0,1.8 0.7,2.2 1.8,2.2c0.3,0 0.8,-0.1 0.9,-0.2c0.4,-0.1 0.8,0 0.9,0.4C33.2,88.8 33,89.2 32.6,89.3z"
        fill="#FFFFFF"/>
    <path
        d="M39.3,81.7c0,0 -0.3,-0.2 -0.8,-0.2c-0.5,0 -1.5,0.3 -2.2,0.6v6.6c0,0.4 -0.3,0.7 -0.7,0.7c-0.4,0 -0.7,-0.3 -0.7,-0.7v-7.8c0,-0.4 0.3,-0.7 0.7,-0.7c0.3,0 0.6,0.2 0.7,0.4c0.7,-0.3 1.6,-0.6 2.2,-0.6c0.8,0 1.4,0.3 1.5,0.4c0.3,0.2 0.4,0.6 0.3,1C40,81.8 39.6,81.9 39.3,81.7z"
        fill="#FFFFFF"/>
    <path
        d="M49.1,85.2L43,85.6c0.2,1.7 1.4,2.6 3,2.6c0.6,0 1.2,-0.1 1.8,-0.3c0.4,-0.1 0.7,0 0.9,0.4c0.1,0.3 0,0.7 -0.4,0.9c-0.7,0.3 -1.5,0.4 -2.3,0.4c-2.6,0 -4.4,-1.8 -4.4,-4.5v-0.7c0,-2.2 1.4,-4.3 4.2,-4.3c2.5,0 4,1.7 4,4.5C49.8,84.9 49.5,85.2 49.1,85.2zM48.4,84c-0.1,-1.3 -0.8,-2.5 -2.6,-2.5c-1.9,0 -2.8,1.4 -2.8,2.9L48.4,84z"
        fill="#FFFFFF"/>
    <path
        d="M57.5,89.3c-0.1,0 -0.7,0.3 -1.4,0.3c-2.1,0 -3.2,-1.2 -3.2,-3.6v-4.4h-1.2c-0.4,0 -0.7,-0.3 -0.7,-0.7c0,-0.4 0.3,-0.7 0.7,-0.7h1.2v-2.3c0,-0.4 0.3,-0.7 0.7,-0.7c0.4,0 0.7,0.3 0.7,0.7v2.3h2.2c0.4,0 0.7,0.3 0.7,0.7c0,0.4 -0.3,0.7 -0.7,0.7h-2.2V86c0,1.8 0.7,2.2 1.8,2.2c0.3,0 0.8,-0.1 0.9,-0.2c0.4,-0.1 0.8,0 0.9,0.4C58.1,88.8 57.9,89.2 57.5,89.3z"
        fill="#FFFFFF"/>
    <path
        d="M65.9,89.3c-0.7,0.2 -1.2,0.3 -2,0.3c-2.8,0 -4.6,-2.1 -4.6,-4.8c0,-2.7 1.8,-4.8 4.6,-4.8c0.6,0 1.3,0.1 2,0.3c0.4,0.1 0.6,0.5 0.5,0.9c-0.1,0.4 -0.5,0.6 -0.9,0.5c-0.5,-0.2 -1.1,-0.3 -1.6,-0.3c-2,0 -3.1,1.4 -3.1,3.3c0,1.9 1.1,3.3 3.1,3.3c0.6,0 1.1,-0.1 1.6,-0.3c0.4,-0.1 0.8,0.1 0.9,0.5C66.5,88.8 66.2,89.2 65.9,89.3z"
        fill="#FFFFFF"/>
    <path
        d="M76.6,88.8c0,0.4 -0.3,0.7 -0.7,0.7c-0.4,0 -0.7,-0.3 -0.7,-0.7v-4.9c0,-1.5 -0.8,-2.3 -2.2,-2.3c-1.4,0 -2.4,0.9 -2.8,1.3v6c0,0.4 -0.3,0.7 -0.7,0.7s-0.7,-0.3 -0.7,-0.7V77.3c0,-0.4 0.3,-0.7 0.7,-0.7s0.7,0.3 0.7,0.7V81c0.7,-0.5 1.6,-0.9 2.8,-0.9c2.2,0 3.6,1.4 3.6,3.8V88.8z"
        fill="#FFFFFF"/>
    <path
        d="M83,89.6c-0.9,0 -2.2,-0.1 -3.1,-0.4c-0.4,-0.1 -0.6,-0.5 -0.4,-0.9s0.5,-0.6 0.9,-0.5c0.7,0.2 1.9,0.4 2.6,0.4c0.9,0 2.4,-0.3 2.4,-2.1c0,-1.1 -0.4,-1.4 -1.4,-1.8l-2.5,-1.1c-1.2,-0.5 -2.3,-1.1 -2.3,-3.1c0,-2.1 1.5,-3.5 3.9,-3.5c0.9,0 2.2,0.1 3.1,0.4c0.4,0.1 0.6,0.5 0.4,0.9c-0.1,0.4 -0.5,0.6 -0.9,0.5c-0.7,-0.2 -1.9,-0.4 -2.6,-0.4c-0.9,0 -2.4,0.3 -2.4,2.1c0,1.1 0.4,1.4 1.4,1.8l2.5,1.1c1.2,0.5 2.3,1.1 2.3,3.1C86.8,88.2 85.3,89.6 83,89.6z"
        fill="#FFFFFF"/>
    <path
        d="M96.6,85.2l-6.2,0.4c0.2,1.7 1.4,2.6 3,2.6c0.6,0 1.2,-0.1 1.8,-0.3c0.4,-0.1 0.7,0 0.9,0.4c0.1,0.3 0,0.7 -0.4,0.9c-0.7,0.3 -1.5,0.4 -2.3,0.4c-2.6,0 -4.4,-1.8 -4.4,-4.5v-0.7c0,-2.2 1.4,-4.3 4.2,-4.3c2.5,0 4,1.7 4,4.5C97.2,84.9 96.9,85.2 96.6,85.2zM95.8,84c-0.1,-1.3 -0.8,-2.5 -2.6,-2.5c-1.9,0 -2.8,1.4 -2.8,2.9L95.8,84z"
        fill="#FFFFFF"/>
    <path
        d="M107.3,88.8c0,0.4 -0.3,0.7 -0.7,0.7c-0.4,0 -0.7,-0.3 -0.7,-0.7v-5c0,-1.5 -0.6,-2.2 -2,-2.2c-1.4,0 -2.5,0.9 -2.9,1.3v6c0,0.4 -0.3,0.7 -0.7,0.7c-0.4,0 -0.7,-0.3 -0.7,-0.7v-7.8c0,-0.4 0.3,-0.7 0.7,-0.7c0.4,0 0.7,0.3 0.7,0.7V81c0.7,-0.5 1.7,-0.9 2.9,-0.9c2.2,0 3.5,1.3 3.5,3.6V88.8z"
        fill="#FFFFFF"/>
    <path
        d="M113,89.6c-0.6,0 -1.7,-0.1 -2.5,-0.3c-0.4,-0.1 -0.6,-0.5 -0.5,-0.9c0.1,-0.4 0.5,-0.6 0.9,-0.5c0.5,0.1 1.6,0.2 2.1,0.2c0.2,0 1.8,0 1.8,-1.2c0,-0.7 -0.2,-0.9 -0.8,-1.1l-2.4,-0.8c-0.8,-0.3 -1.8,-0.8 -1.8,-2.4c0,-1.8 1.7,-2.6 3.2,-2.6c0.6,0 1.8,0.1 2.4,0.3c0.4,0.1 0.6,0.5 0.5,0.9c-0.1,0.4 -0.5,0.6 -0.9,0.5c-0.5,-0.1 -1.6,-0.3 -2.1,-0.3c-0.2,0 -1.8,0 -1.8,1.2c0,0.7 0.2,0.9 0.8,1.1l2.4,0.8c0.8,0.3 1.8,0.8 1.8,2.4C116.2,88.8 114.5,89.6 113,89.6z"
        fill="#FFFFFF"/>
    <path
        d="M125.8,85.2l-6.2,0.4c0.2,1.7 1.4,2.6 3,2.6c0.6,0 1.2,-0.1 1.8,-0.3c0.4,-0.1 0.7,0 0.9,0.4c0.1,0.3 0,0.7 -0.4,0.9c-0.7,0.3 -1.5,0.4 -2.3,0.4c-2.6,0 -4.4,-1.8 -4.4,-4.5v-0.7c0,-2.2 1.4,-4.3 4.2,-4.3c2.5,0 4,1.7 4,4.5C126.4,84.9 126.2,85.2 125.8,85.2zM125.1,84c-0.1,-1.3 -0.8,-2.5 -2.6,-2.5c-1.9,0 -2.8,1.4 -2.8,2.9L125.1,84z"
        fill="#FFFFFF"/>
    <path
        d="M127,74.8h-0.7v2.5h-0.6v-2.5h-0.7v-0.5h1.9V74.8z"
        fill="#FFFFFF"/>
    <path
        d="M128.2,74.3l0.4,2.1h0l0.4,-2.1h0.9v3h-0.6v-2.4h0l-0.5,2.4h-0.5l-0.5,-2.4h0v2.4h-0.6v-3H128.2z"
        fill="#FFFFFF"/>
    <path
        d="M87.1,21.7c-1.1,-2.9 -4.4,-4.3 -7.3,-3.2c-0.4,0.2 -0.8,0.4 -1.2,0.7c0,0 -0.5,0.4 -0.7,0.6c-1.8,1.5 -3.4,2.5 -4.5,2.8c-7.5,2.3 -15.6,1.8 -15.9,1.8c-10.6,0 -14.7,8.1 -15,13.9c0,0.1 0,0.3 0,0.4V39c0,0.1 0,0.2 0,0.3c0.3,10.9 9.1,14.9 15,14.9h20.7c2.3,0 4.1,-1.8 4.1,-4.1c0,-2.3 -1.8,-4.1 -4.1,-4.1H57.6c-1.6,0 -6.8,-0.6 -6.9,-7.1c0,-1.3 0.6,-6.3 6.8,-6.4c1.3,0.1 9.8,0.4 18.2,-2.1l0,0c2.2,-0.8 5.1,-1.1 6.9,-1.2l0,0c0.4,-0.1 0.9,-0.1 1.3,-0.3C86.8,27.8 88.2,24.6 87.1,21.7z"
        fill="#FFFFFF"/>
    <path
        d="M48.5,67.6c1.1,2.9 4.4,4.3 7.3,3.2c0.4,-0.2 0.8,-0.4 1.2,-0.7c0,0 0.5,-0.4 0.7,-0.6c1.8,-1.5 3.4,-2.5 4.5,-2.8c7.5,-2.3 15.6,-1.8 15.9,-1.8c10.6,0 14.7,-8.1 15,-13.9c0,-0.1 0,-0.3 0,-0.4v-0.3c0,-0.1 0,-0.2 0,-0.3c-0.3,-10.9 -9.1,-14.9 -15,-14.9H57.3c-2.3,0 -4.1,1.8 -4.1,4.1s1.8,4.1 4.1,4.1H78c1.6,0 6.8,0.6 6.9,7.1c0,1.3 -0.6,6.3 -6.8,6.4c-1.3,-0.1 -9.8,-0.4 -18.2,2.1l0,0c-2.2,0.8 -5.1,1.1 -6.9,1.2l0,0c-0.4,0.1 -0.9,0.1 -1.3,0.3C48.8,61.4 47.4,64.7 48.5,67.6z"
        fill="#FFFFFF"/>
</svg>
